<svg width="105" height="27" viewBox="0 0 105 27" fill="none" xmlns="http://www.w3.org/2000/svg">
<rect x="96" y="10" width="4" height="14" fill="#FFEA00"/>
<rect x="91" y="15" width="14" height="4" fill="#FFEA00"/>
<path d="M0 2.8488H10.4558C12.9546 2.8488 15.1576 3.32905 17.0646 4.28954C18.9935 5.22819 20.4841 6.55978 21.5362 8.28429C22.6103 10.0088 23.1473 12.0171 23.1473 14.3092C23.1473 16.6012 22.6103 18.6095 21.5362 20.3341C20.4841 22.0586 18.9935 23.4011 17.0646 24.3616C15.1576 25.3002 12.9546 25.7695 10.4558 25.7695H0V2.8488ZM10.1927 21.4146C12.4943 21.4146 14.3246 20.7816 15.6836 19.5155C17.0646 18.2275 17.7551 16.4921 17.7551 14.3092C17.7551 12.1262 17.0646 10.4017 15.6836 9.13564C14.3246 7.84771 12.4943 7.20374 10.1927 7.20374H5.32652V21.4146H10.1927Z" fill="white"/>
<path d="M24.1722 8.15332H29.3015V25.7695H24.1722V8.15332Z" fill="white"/>
<path d="M49.4496 1.47356V25.7695H44.5505V23.7394C43.2791 25.2675 41.4379 26.0315 39.0267 26.0315C37.3608 26.0315 35.8483 25.6604 34.4893 24.9182C33.1522 24.176 32.1 23.1173 31.3328 21.742C30.5656 20.3668 30.182 18.7733 30.182 16.9614C30.182 15.1496 30.5656 13.5561 31.3328 12.1808C32.1 10.8056 33.1522 9.74686 34.4893 9.00466C35.8483 8.26247 37.3608 7.89137 39.0267 7.89137C41.2844 7.89137 43.049 8.60082 44.3203 10.0197V1.47356H49.4496ZM39.9144 21.8403C41.2077 21.8403 42.2818 21.4037 43.1367 20.5305C43.9915 19.6355 44.419 18.4458 44.419 16.9614C44.419 15.477 43.9915 14.2983 43.1367 13.4251C42.2818 12.5301 41.2077 12.0826 39.9144 12.0826C38.5993 12.0826 37.5142 12.5301 36.6593 13.4251C35.8045 14.2983 35.377 15.477 35.377 16.9614C35.377 18.4458 35.8045 19.6355 36.6593 20.5305C37.5142 21.4037 38.5993 21.8403 39.9144 21.8403Z" fill="white"/>
<path d="M59.9837 26.0315C58.1205 26.0315 56.4436 25.6495 54.9531 24.8855C53.4844 24.0996 52.3336 23.0191 51.5007 21.6438C50.6677 20.2686 50.2513 18.7078 50.2513 16.9614C50.2513 15.2151 50.6677 13.6543 51.5007 12.2791C52.3336 10.9038 53.4844 9.83417 54.9531 9.07015C56.4436 8.28429 58.1205 7.89137 59.9837 7.89137C61.8468 7.89137 63.5127 8.28429 64.9814 9.07015C66.45 9.83417 67.6008 10.9038 68.4338 12.2791C69.2667 13.6543 69.6832 15.2151 69.6832 16.9614C69.6832 18.7078 69.2667 20.2686 68.4338 21.6438C67.6008 23.0191 66.45 24.0996 64.9814 24.8855C63.5127 25.6495 61.8468 26.0315 59.9837 26.0315ZM59.9837 21.8403C61.2989 21.8403 62.3729 21.4037 63.2059 20.5305C64.0607 19.6355 64.4882 18.4458 64.4882 16.9614C64.4882 15.477 64.0607 14.2983 63.2059 13.4251C62.3729 12.5301 61.2989 12.0826 59.9837 12.0826C58.6685 12.0826 57.5834 12.5301 56.7286 13.4251C55.8737 14.2983 55.4463 15.477 55.4463 16.9614C55.4463 18.4458 55.8737 19.6355 56.7286 20.5305C57.5834 21.4037 58.6685 21.8403 59.9837 21.8403Z" fill="white"/>
<path d="M81.1803 25.7695L77.3005 20.3668L73.2892 25.7695H67.6996L74.5057 16.8959L67.9298 8.15332H73.6837L77.432 13.2941L81.2789 8.15332H86.737L80.161 16.765L87 25.7695H81.1803Z" fill="white"/>
<path d="M24.4354 4.87884C25.0272 5.42458 25.7944 5.69744 26.7369 5.69744C27.6795 5.69744 28.4467 5.42458 29.0385 4.87884C29.6304 4.31128 29.9263 3.60183 29.9263 2.75049C29.9263 1.96464 29.6304 1.30976 29.0385 0.785855C28.4467 0.261952 27.6795 0 26.7369 0C25.7944 0 25.0272 0.272866 24.4354 0.818599C23.8435 1.36433 23.5476 2.04104 23.5476 2.84872C23.5476 3.6564 23.8435 4.33311 24.4354 4.87884Z" fill="#FFEA00"/>
</svg>
